<svg id="airport" xmlns="http://www.w3.org/2000/svg" width="50" height="50" viewBox="0 0 50 50">
  <rect id="Rectangle_104" data-name="Rectangle 104" width="50" height="50" fill="none"/>
  <g id="Group_93" data-name="Group 93" transform="translate(1 3.164)">
    <path id="Path_179" data-name="Path 179" d="M144.321,15.239,142.083,13l3.176-3.176a.814.814,0,0,1,1.151,0l1.087,1.087a.814.814,0,0,1,0,1.151Zm5.95,2.806-2.238-2.238,3.176-3.176a.814.814,0,0,1,1.151,0l1.087,1.087a.814.814,0,0,1,0,1.151Zm17.895,21.039,2.238,2.238,3.176-3.176a.814.814,0,0,0,0-1.151l-1.087-1.087a.814.814,0,0,0-1.151,0Zm-3.184-5.95,2.238,2.238L170.4,32.2a.814.814,0,0,0,0-1.151l-1.087-1.087a.814.814,0,0,0-1.151,0Z" transform="translate(-129.645 -6.778)" fill="#3d6687"/>
    <path id="Path_180" data-name="Path 180" d="M45.127,55.4,30.921,36.368,11.889,22.162a1.365,1.365,0,0,1-.149-2.06l1.951-1.951a3.054,3.054,0,0,1,3.329-.662l23.175,9.6,9.6,23.175a3.054,3.054,0,0,1-.662,3.329l-1.951,1.951A1.366,1.366,0,0,1,45.127,55.4ZM22.89,59.5,16.357,50.81,7.671,44.277a.586.586,0,0,1-.062-.882l1-1a2.293,2.293,0,0,1,2.567-.467l9.682,4.383,4.383,9.682a2.293,2.293,0,0,1-.467,2.567l-1,1A.586.586,0,0,1,22.89,59.5Z" transform="translate(-6.786 -13.776)" fill="#ccdfed"/>
    <path id="Path_181" data-name="Path 181" d="M22.806,81.731a1.893,1.893,0,0,1-2.852-.2l-2.66-3.536L17.286,78l-9.224-6.94-.454.454a.586.586,0,0,0,.062.882l8.686,6.533,6.533,8.686a.586.586,0,0,0,.882.062l1-1a2.293,2.293,0,0,0,.467-2.567L23.74,80.8Zm26.943-.889c.039-.085.076-.171.107-.259A3.091,3.091,0,0,0,49.8,78.39l-1.4-3.369-.089-.214a3.052,3.052,0,0,1-.871,1.78l-1.951,1.951a1.365,1.365,0,0,1-2.06-.149L32.144,63.266,11.888,48.076l-.148.148a1.369,1.369,0,0,0,.149,2.06l12.365,9.23,6.667,4.976L35.9,71.156l9.23,12.365a1.369,1.369,0,0,0,2.06.149l1.951-1.951a3.048,3.048,0,0,0,.611-.878Z" transform="translate(-6.786 -41.898)" fill="#bad5e5"/>
    <path id="Path_182" data-name="Path 182" d="M83.166,56.918a1.748,1.748,0,0,1-2.331-2.331,40.844,40.844,0,0,1,5.99-9.152L103.3,26.412A14.412,14.412,0,0,1,112.88,21.5l1.01-.093a2.262,2.262,0,0,1,2.46,2.46l-.093,1.01a14.412,14.412,0,0,1-4.916,9.578L92.318,50.928A40.841,40.841,0,0,1,83.166,56.918Z" transform="translate(-73.598 -17.552)" fill="#61aff6"/>
    <path id="Path_183" data-name="Path 183" d="M121.753,24.873l.093-1.01a2.262,2.262,0,0,0-2.46-2.46l-1.01.093-.039,0a14.412,14.412,0,0,1-4.912,9.538L86.681,56.584a1.718,1.718,0,0,0,1.981.334,40.844,40.844,0,0,0,9.152-5.99l19.023-16.477A14.411,14.411,0,0,0,121.753,24.873Z" transform="translate(-79.093 -17.552)" fill="#399aea"/>
    <path id="Path_184" data-name="Path 184" d="M389.324,62.031a.651.651,0,0,0-.111,1.3,3.326,3.326,0,0,1,3.287,3.287.651.651,0,0,0,1.3-.111A4.624,4.624,0,0,0,389.324,62.031Z" transform="translate(-354.595 -54.629)"/>
    <path id="Path_185" data-name="Path 185" d="M45.393,8.907,60.024,19.828,55.14,25.466a.651.651,0,1,0,.984.853l5.342-6.167h0L70.877,9.286a13.7,13.7,0,0,1,9.145-4.694l1.01-.093a1.611,1.611,0,0,1,1.752,1.752l-.093,1.01A13.79,13.79,0,0,1,80.328,13.8a.651.651,0,1,0,1.073.738,15.1,15.1,0,0,0,2.587-7.158l.093-1.01A2.913,2.913,0,0,0,80.914,3.2L79.9,3.3A14.993,14.993,0,0,0,69.893,8.434l-1.555,1.8L64.751,8.743l.192-.192a1.467,1.467,0,0,0,0-2.072L63.857,5.392a1.467,1.467,0,0,0-2.072,0l-1.5,1.5-1.724-.715.432-.432a1.467,1.467,0,0,0,0-2.072L57.906,2.586a1.467,1.467,0,0,0-2.072,0l-1.74,1.74L51.163,3.111a3.694,3.694,0,0,0-4.038.8L45.173,5.865a2.017,2.017,0,0,0,.22,3.042ZM62.705,6.313a.163.163,0,0,1,.23,0L64.023,7.4a.163.163,0,0,1,0,.23L63.45,8.2l-1.862-.772Zm-5.95-2.806a.163.163,0,0,1,.23,0l1.087,1.087a.163.163,0,0,1,0,.23l-.813.813L55.4,4.865l1.359-1.358ZM46.094,6.786l1.951-1.951a2.4,2.4,0,0,1,2.619-.521L67.44,11.266h0l-6.561,7.575L46.172,7.863a.714.714,0,0,1-.078-1.078Z" transform="translate(-40.68)"/>
    <path id="Path_186" data-name="Path 186" d="M44.4,173.2l-1.087-1.087a1.467,1.467,0,0,0-2.072,0l-.538.538-.825-1.991,1.339-1.339a1.467,1.467,0,0,0,0-2.072l-1.087-1.087a1.467,1.467,0,0,0-2.072,0l-.031.031-1.595-3.848,1.743-1.51q.193-.168.381-.342a.651.651,0,1,0-.885-.955q-.172.159-.349.312L18.294,176.33q-1.49,1.29-3.1,2.43a40.33,40.33,0,0,1-4.648,2.837h0q-.622.324-1.255.626a1.1,1.1,0,0,1-1.463-1.463q.322-.674.67-1.336.13-.248.263-.5l.061-.111q.132-.242.267-.483l.057-.1q.139-.246.282-.489l.053-.09q.146-.247.295-.492l.054-.089q.149-.243.3-.484l.062-.1q.185-.291.375-.578.33-.5.675-.989,1.047-1.488,2.226-2.877a.651.651,0,1,0-.993-.843q-1.012,1.192-1.931,2.458L4.659,171a2.957,2.957,0,0,0-3.3.6l-1,1a1.237,1.237,0,0,0,.131,1.863L7.046,179.4q-.2.4-.4.8a2.406,2.406,0,0,0,2.156,3.438,2.418,2.418,0,0,0,1.043-.239q.4-.194.8-.4l4.929,6.554a1.236,1.236,0,0,0,1.863.131l1-1a2.958,2.958,0,0,0,.6-3.3l-2.663-5.883q1.427-1.038,2.762-2.194l7.648-6.624,11.024,14.768a2.017,2.017,0,0,0,3.042.22l1.951-1.951a3.694,3.694,0,0,0,.8-4.038l-1.065-2.569,1.846-1.846a1.467,1.467,0,0,0,0-2.072Zm-43.06.27.949-.949a1.65,1.65,0,0,1,1.838-.335L9.78,174.75l-.036.054-.211.314-.1.154q-.356.541-.695,1.093l-.085.138q-.1.165-.2.33l-.1.172q-.1.162-.189.324l-.095.166q-.155.271-.306.545l-.1.188-6.323-4.756Zm16.526,12.457a1.649,1.649,0,0,1-.335,1.838l-.948.948-4.756-6.323.306-.169q.218-.121.435-.245l.2-.117.326-.191.162-.1q.56-.334,1.109-.686l.143-.092.338-.221.135-.09c.106-.071.213-.141.318-.213Zm21.112-18.843a.163.163,0,0,1,.23,0l1.087,1.087a.163.163,0,0,1,0,.23l-.957.957-.772-1.862Zm2.917,15.721-1.951,1.951a.714.714,0,0,1-1.078-.078l-11.08-14.844,7.608-6.59h0l7.022,16.942h0a2.4,2.4,0,0,1-.521,2.619Zm1.584-8.454-1.465,1.465-.772-1.863.919-.919a.163.163,0,0,1,.23,0l1.087,1.087h0a.163.163,0,0,1,0,.23Z" transform="translate(0 -143.446)"/>
  </g>
</svg>
