<svg xmlns="http://www.w3.org/2000/svg" width="44.297" height="39.911" viewBox="0 0 44.297 39.911">
  <g id="appoinment" transform="translate(0 -25.351)">
    <path id="Path_207" data-name="Path 207" d="M71.71,109.663v25.423a1.76,1.76,0,0,1-1.76,1.759H31.769a1.76,1.76,0,0,1-1.76-1.759V109.663Z" transform="translate(-27.413 -77.017)" fill="#ddede5"/>
    <path id="Path_208" data-name="Path 208" d="M50.14,131.493a11.862,11.862,0,0,1-1.267,5.35h-17.1a1.76,1.76,0,0,1-1.76-1.759V122.805a11.937,11.937,0,0,1,20.131,8.687ZM30.009,109.66h41.7v2.216h-41.7Z" transform="translate(-27.413 -77.015)" fill="#afc3c3"/>
    <path id="Path_209" data-name="Path 209" d="M71.713,49.159v2.927h-41.7V49.159A3.758,3.758,0,0,1,33.77,45.4H67.955A3.758,3.758,0,0,1,71.713,49.159Z" transform="translate(-27.415 -18.315)" fill="#ff4f19"/>
    <path id="Path_210" data-name="Path 210" d="M30.01,109.66h41.7v1.126H30.01Z" transform="translate(-27.414 -77.015)" fill="#f90"/>
    <path id="Path_211" data-name="Path 211" d="M99.513,45.4v1.772a1.007,1.007,0,0,1-1.007,1.007H92.843a1.007,1.007,0,0,1-1.007-1.007V45.4Zm23.326,0v1.772a1.007,1.007,0,0,1-1.007,1.007h-5.664a1.007,1.007,0,0,1-1.007-1.007V45.4Z" transform="translate(-83.891 -18.315)" fill="#f40029"/>
    <path id="Path_212" data-name="Path 212" d="M109.4,28.773h-4.426a.535.535,0,0,1-.535-.535V25.886a.535.535,0,0,1,.535-.535H109.4a.535.535,0,0,1,.535.535v2.353A.535.535,0,0,1,109.4,28.773Z" transform="translate(-95.408 0)" fill="#4e7693"/>
    <path id="Path_213" data-name="Path 213" d="M109.939,26.438h-5.5v-.552a.535.535,0,0,1,.535-.535H109.4a.535.535,0,0,1,.535.535v.552Z" transform="translate(-95.407 0)" fill="#618baa"/>
    <path id="Path_214" data-name="Path 214" d="M379.008,28.773h-4.426a.535.535,0,0,1-.535-.535V25.886a.535.535,0,0,1,.535-.535h4.426a.535.535,0,0,1,.535.535v2.353A.535.535,0,0,1,379.008,28.773Z" transform="translate(-341.685 0)" fill="#4e7693"/>
    <path id="Path_215" data-name="Path 215" d="M379.542,26.438h-5.5v-.552a.535.535,0,0,1,.535-.535h4.426a.535.535,0,0,1,.535.535v.552Z" transform="translate(-341.684 0)" fill="#618baa"/>
    <path id="Path_216" data-name="Path 216" d="M189.069,204.312h-1.734a.668.668,0,0,1,0-1.337h1.734a.668.668,0,0,1,0,1.337Zm5.258,0h-1.734a.668.668,0,1,1,0-1.337h1.734a.668.668,0,0,1,0,1.337Zm-5.258,3.589h-1.734a.668.668,0,0,1,0-1.337h1.734a.668.668,0,0,1,0,1.337Zm5.258,0h-1.734a.668.668,0,1,1,0-1.337h1.734a.668.668,0,0,1,0,1.337Zm0,3.589h-1.734a.668.668,0,1,1,0-1.337h1.734a.668.668,0,0,1,0,1.337Z" transform="translate(-170.517 -162.256)" fill="#35696a"/>
    <path id="Path_217" data-name="Path 217" d="M306.3,181.7a.668.668,0,0,1-.668-.669V163.557a.668.668,0,1,1,1.337,0v17.476A.668.668,0,0,1,306.3,181.7Z" transform="translate(-279.186 -125.638)" fill="#ff4f19"/>
    <path id="Path_218" data-name="Path 218" d="M385.871,214.413v-3.258a.669.669,0,0,0-1.11-.5l-.687.605a.669.669,0,0,0,.46,1.17v1.983h-.018a.668.668,0,1,0,0,1.337h1.342a.668.668,0,0,0,.013-1.336Zm-3,0v-3.258a.669.669,0,0,0-1.11-.5l-.687.605a.668.668,0,0,0,.46,1.17v1.983h-.019a.668.668,0,0,0,0,1.337h1.343a.668.668,0,0,0,.013-1.336Zm-.671,6.041V217.2a.669.669,0,0,0-1.11-.5l-.687.605a.668.668,0,0,0,.46,1.17v1.984h-.019a.668.668,0,0,0,0,1.337h1.342a.668.668,0,0,0,.013-1.336Zm-2.963,0V217.2a.669.669,0,0,0-1.11-.5l-.687.605a.668.668,0,0,0,.46,1.17v1.984h-.019a.668.668,0,0,0,0,1.337h1.342a.668.668,0,0,0,.013-1.336Z" transform="translate(-344.574 -169.119)" fill="#35696a"/>
    <circle id="Ellipse_68" data-name="Ellipse 68" cx="10.784" cy="10.784" r="10.784" transform="translate(0 43.693)" fill="#ff4f19"/>
    <path id="Path_219" data-name="Path 219" d="M22.9,269.885a9.637,9.637,0,1,1,9.637-9.637A9.648,9.648,0,0,1,22.9,269.885Z" transform="translate(-12.111 -205.771)" fill="#f40029"/>
    <circle id="Ellipse_69" data-name="Ellipse 69" cx="8.479" cy="8.479" r="8.479" transform="translate(2.306 45.998)" fill="#ddede5"/>
    <path id="Path_220" data-name="Path 220" d="M46.52,278.533a.668.668,0,0,1-.668-.668v-.724a.668.668,0,0,1,1.337,0v.724A.668.668,0,0,1,46.52,278.533Zm0,12.739a.668.668,0,0,1-.668-.668v-.724a.668.668,0,0,1,1.337,0v.724A.668.668,0,0,1,46.52,291.272Zm6.731-6.731h-.724a.668.668,0,1,1,0-1.337h.724a.668.668,0,1,1,0,1.337Zm-12.739,0h-.724a.668.668,0,1,1,0-1.337h.724a.668.668,0,1,1,0,1.337Zm10.256-4.248a.668.668,0,0,1-.473-1.141l.512-.512a.669.669,0,1,1,.945.945l-.512.512A.667.667,0,0,1,50.768,280.292ZM41.76,289.3a.668.668,0,0,1-.473-1.141l.512-.512a.669.669,0,1,1,.945.945l-.512.512A.667.667,0,0,1,41.76,289.3Zm9.52,0a.667.667,0,0,1-.473-.2l-.512-.512a.669.669,0,1,1,.945-.945l.512.512a.668.668,0,0,1-.473,1.141Zm-9.008-9.008a.666.666,0,0,1-.473-.2l-.512-.512a.668.668,0,1,1,.945-.945l.512.512a.668.668,0,0,1-.473,1.141Z" transform="translate(-35.735 -229.394)" fill="#ff4f19"/>
    <path id="Path_221" data-name="Path 221" d="M117.471,309.58a.668.668,0,0,1-.668-.668v-3.069a.668.668,0,1,1,1.337,0v3.069a.668.668,0,0,1-.669.669Z" transform="translate(-106.697 -255.613)" fill="#afc3c3"/>
    <circle id="Ellipse_70" data-name="Ellipse 70" cx="1.372" cy="1.372" r="1.372" transform="translate(9.413 53.097)" fill="#4e7693"/>
    <path id="Path_222" data-name="Path 222" d="M343.169,182.995H342.04a.535.535,0,0,1-.535-.535v-1.129a.535.535,0,0,1,.535-.535h1.129a.535.535,0,0,1,.535.535v1.129a.535.535,0,0,1-.535.535Z" transform="translate(-311.959 -141.996)" fill="#ff4f19"/>
  </g>
</svg>
