<svg xmlns="http://www.w3.org/2000/svg" width="44.068" height="47.012" viewBox="0 0 44.068 47.012">
  <g id="booking" transform="translate(-16.032 -0.001)">
    <path id="Path_200" data-name="Path 200" d="M44.237,9.417,23.948,19.212a.736.736,0,0,0-.416.663v24.1a.736.736,0,0,0,.416.663l20.29,9.8a1.472,1.472,0,0,0,1.28,0l20.289-9.795a.736.736,0,0,0,.416-.663v-24.1a.736.736,0,0,0-.416-.663L45.517,9.417A1.472,1.472,0,0,0,44.237,9.417Z" transform="translate(-6.811 -8.419)" fill="#ffe17d"/>
    <path id="Path_201" data-name="Path 201" d="M23.654,120.368a.733.733,0,0,0-.122.4v24.1a.736.736,0,0,0,.416.663l20.289,9.8a1.472,1.472,0,0,0,.64.146V130.614Z" transform="translate(-6.811 -109.315)" fill="#ffc350"/>
    <path id="Path_202" data-name="Path 202" d="M277.223,120.368a.733.733,0,0,1,.122.4v24.1a.736.736,0,0,1-.416.663l-20.29,9.8a1.471,1.471,0,0,1-.64.146V130.614l21.223-10.246Z" transform="translate(-217.934 -109.315)" fill="#ffd164"/>
    <path id="Path_203" data-name="Path 203" d="M142.63,56.289,121.332,46l-5.614,2.721,21.345,10.3Z" transform="translate(-90.533 -41.776)" fill="#ff8087"/>
    <path id="Path_204" data-name="Path 204" d="M348.185,160.789v7.983a.368.368,0,0,0,.528.331l4.622-2.231a.736.736,0,0,0,.416-.663v-8.157Z" transform="translate(-301.654 -143.539)" fill="#e6646e"/>
    <path id="booking-2" data-name="booking" d="M59.711,10.374,38.366.069a.689.689,0,0,0-.6,0l-21.346,10.3a.689.689,0,0,0-.389.62V36.019a.689.689,0,0,0,.389.62l21.345,10.3a.689.689,0,0,0,.6,0l21.345-10.3a.689.689,0,0,0,.389-.62V10.994a.689.689,0,0,0-.389-.62ZM38.066,1.454l19.761,9.54L52.1,13.759a.683.683,0,0,0-.117-.073L32.355,4.211ZM30.8,4.989l19.733,9.526-4.042,1.951L26.767,6.944,30.8,4.989ZM47.219,17.644l3.775-1.822v7.212l-3.775,1.822ZM38.755,45.227v-23.5l4.763-2.3a.689.689,0,1,0-.6-1.24l-4.853,2.343-1.91-.922a.689.689,0,1,0-.6,1.24l1.82.878v23.5l-19.968-9.64v-23.5l15.206,7.341a.689.689,0,1,0,.6-1.24L18.3,10.994l6.841-3.3,20.687,9.987.01.012v8.264a.689.689,0,0,0,.988.62l5.152-2.487a.689.689,0,0,0,.389-.62V15.157l6.351-3.066v23.5Z"/>
    <path id="Path_206" data-name="Path 206" d="M52.169,310.537l-3.132-1.512a.689.689,0,1,0-.6,1.24l3.132,1.512a.689.689,0,0,0,.6-1.24Zm2.883-1.877-6.011-2.9a.689.689,0,1,0-.6,1.24l6.011,2.9a.689.689,0,1,0,.6-1.24Z" transform="translate(-29.076 -277.621)"/>
  </g>
</svg>
