<svg xmlns="http://www.w3.org/2000/svg" xmlns:xlink="http://www.w3.org/1999/xlink" width="44.959" height="44.959" viewBox="0 0 44.959 44.959">
  <defs>
    <clipPath id="clip-path">
      <path id="Path_288" data-name="Path 288" d="M0-682.665H44.959v44.959H0Z" transform="translate(0 682.665)"/>
    </clipPath>
  </defs>
  <g id="darshan" clip-path="url(#clip-path)">
    <path id="Path_259" data-name="Path 259" d="M-224.194,0A15.806,15.806,0,0,0-240,15.806a15.806,15.806,0,0,0,15.806,15.806,15.806,15.806,0,0,0,15.806-15.806A15.806,15.806,0,0,0-224.194,0" transform="translate(246.673 6.674)" fill="#ffea60" fill-rule="evenodd"/>
    <path id="Path_260" data-name="Path 260" d="M-117.405-575.268c1.283-3,2-6.231,3.269-10.969l-1.791-1.044.256-5.572a16.229,16.229,0,0,0-1.256-8.2c-1.747-4.838-4.638-11.866-5.164-13.428-.791-2.273-4.026-1.544-3.425,1.26l2.137,9.189a1.4,1.4,0,0,0-.713-.115,1.756,1.756,0,0,0-1.583,1.9c.082.92.693,6.5.775,7.416.361,4.056-3.525,12.077,3.559,17.222a40.959,40.959,0,0,0,3.936,2.338" transform="translate(148.237 616.703)" fill="#ffdcd5" fill-rule="evenodd"/>
    <path id="Path_261" data-name="Path 261" d="M-65.133,0C-66.4,4.738-67.12,7.969-68.4,10.969a24.578,24.578,0,0,1-1.323,2.646h5.3c1.355-3.074,2.076-6.353,3.382-11.228Z" transform="translate(99.234 30.466)" fill="#fff2a0" fill-rule="evenodd"/>
    <path id="Path_262" data-name="Path 262" d="M-47.975,0C-49.281,4.875-50,8.154-51.357,11.228h9.268v-7.8Z" transform="translate(86.17 32.853)" fill="#5cd0b3" fill-rule="evenodd"/>
    <path id="Path_263" data-name="Path 263" d="M-46.374-575.268c-1.283-3-2-6.231-3.269-10.969l1.791-1.044-.256-5.572a16.228,16.228,0,0,1,1.256-8.2c1.747-4.838,4.638-11.866,5.164-13.428.791-2.273,4.026-1.544,3.425,1.26l-2.137,9.189a1.4,1.4,0,0,1,.713-.115,1.756,1.756,0,0,1,1.583,1.9c-.082.92-.693,6.5-.775,7.416-.361,4.056,3.526,12.077-3.559,17.222a40.958,40.958,0,0,1-3.936,2.338" transform="translate(60.502 616.703)" fill="#ffdcd5" fill-rule="evenodd"/>
    <path id="Path_264" data-name="Path 264" d="M-58.074,0c1.27,4.738,1.987,7.969,3.269,10.969a24.56,24.56,0,0,0,1.323,2.646h-5.3c-1.354-3.074-2.076-6.353-3.382-11.228Z" transform="translate(68.931 30.466)" fill="#fff2a0" fill-rule="evenodd"/>
    <path id="Path_265" data-name="Path 265" d="M-83.483,0c1.306,4.875,2.028,8.154,3.382,11.228h-9.268v-7.8Z" transform="translate(90.247 32.853)" fill="#5cd0b3" fill-rule="evenodd"/>
    <path id="Path_266" data-name="Path 266" d="M-115.81-574.375a39.091,39.091,0,0,1-3.824-2.275c-7.084-5.145-3.2-13.166-3.559-17.222-.082-.92-.693-6.5-.775-7.416a1.756,1.756,0,0,1,1.583-1.9c.956-.086,1.523.7,1.893,1.589a44.868,44.868,0,0,1,2.3,6.992m-3.487-8.493-2.13-9.161c-.6-2.8,2.634-3.532,3.425-1.26.526,1.562,3.416,8.59,5.164,13.429a16.229,16.229,0,0,1,1.256,8.2l-.256,5.572,11.771,6.861v7.8H-117.02c2.2-3.819,2.93-7.394,4.541-13.423" transform="translate(146.529 615.747)" fill="none" stroke="#000" stroke-linecap="round" stroke-linejoin="round" stroke-miterlimit="2.613" stroke-width="1"/>
    <path id="Path_267" data-name="Path 267" d="M-46.387,0c-1.253,4.692-1.971,7.9-3.27,10.89" transform="translate(84.525 33.065)" fill="none" stroke="#000" stroke-linecap="round" stroke-linejoin="round" stroke-miterlimit="22.926" stroke-width="1"/>
    <path id="Path_268" data-name="Path 268" d="M-189.527-574.375a39.089,39.089,0,0,0,3.824-2.275c7.084-5.145,3.2-13.166,3.559-17.222.082-.92.693-6.5.775-7.416a1.756,1.756,0,0,0-1.583-1.9c-.956-.086-1.523.7-1.893,1.589a44.878,44.878,0,0,0-2.3,6.992m-4.238,2.482.01.23.256,5.572-11.771,6.861v7.8h14.572c-2.2-3.819-2.93-7.394-4.541-13.423m9.2-18.013,2.13-9.161c.6-2.8-2.634-3.532-3.425-1.26-.526,1.562-3.416,8.59-5.164,13.429l-.078.216" transform="translate(203.767 615.747)" fill="none" stroke="#000" stroke-linecap="round" stroke-linejoin="round" stroke-miterlimit="2.613" stroke-width="1"/>
    <path id="Path_269" data-name="Path 269" d="M0,0C1.253,4.692,1.971,7.9,3.27,10.89" transform="translate(6.82 33.065)" fill="none" stroke="#000" stroke-linecap="round" stroke-linejoin="round" stroke-miterlimit="22.926" stroke-width="1"/>
    <path id="Path_270" data-name="Path 270" d="M-101.829-329.227a15.806,15.806,0,0,0,2.556-8.617,15.806,15.806,0,0,0-9.735-14.593" transform="translate(137.558 360.324)" fill="none" stroke="#000" stroke-linecap="round" stroke-linejoin="round" stroke-miterlimit="22.926" stroke-width="1"/>
    <path id="Path_271" data-name="Path 271" d="M-46.707,0H-50" transform="translate(53.161 22.479)" fill="none" stroke="#000" stroke-linecap="round" stroke-linejoin="round" stroke-miterlimit="22.926" stroke-width="1"/>
    <path id="Path_272" data-name="Path 272" d="M-22.556,0l-1.59.426" transform="translate(26.376 27.479)" fill="none" stroke="#000" stroke-linecap="round" stroke-linejoin="round" stroke-miterlimit="22.926" stroke-width="1"/>
    <path id="Path_273" data-name="Path 273" d="M0,0,1.59.426" transform="translate(41.139 27.479)" fill="none" stroke="#000" stroke-linecap="round" stroke-linejoin="round" stroke-miterlimit="22.926" stroke-width="1"/>
    <path id="Path_274" data-name="Path 274" d="M0-6.045l1.59-.426" transform="translate(41.139 23.524)" fill="none" stroke="#000" stroke-linecap="round" stroke-linejoin="round" stroke-miterlimit="22.926" stroke-width="1"/>
    <path id="Path_275" data-name="Path 275" d="M0-16.513l1.164-1.164" transform="translate(36.14 25.332)" fill="none" stroke="#000" stroke-linecap="round" stroke-linejoin="round" stroke-miterlimit="22.926" stroke-width="1"/>
    <path id="Path_276" data-name="Path 276" d="M-16.513-16.513l-1.164-1.164" transform="translate(25.332 25.332)" fill="none" stroke="#000" stroke-linecap="round" stroke-linejoin="round" stroke-miterlimit="22.926" stroke-width="1"/>
    <path id="Path_277" data-name="Path 277" d="M-22.556-6.045l-1.59-.426" transform="translate(26.376 23.524)" fill="none" stroke="#000" stroke-linecap="round" stroke-linejoin="round" stroke-miterlimit="22.926" stroke-width="1"/>
    <path id="Path_278" data-name="Path 278" d="M0,0H3.293" transform="translate(38.505 22.479)" fill="none" stroke="#000" stroke-linecap="round" stroke-linejoin="round" stroke-miterlimit="22.926" stroke-width="1"/>
    <path id="Path_279" data-name="Path 279" d="M0-23.353,2.852-25" transform="translate(36.358 37.82)" fill="none" stroke="#000" stroke-linecap="round" stroke-linejoin="round" stroke-miterlimit="22.926" stroke-width="1"/>
    <path id="Path_280" data-name="Path 280" d="M0-40.45,1.646-43.3" transform="translate(30.492 49.051)" fill="none" stroke="#000" stroke-linecap="round" stroke-linejoin="round" stroke-miterlimit="22.926" stroke-width="1"/>
    <path id="Path_281" data-name="Path 281" d="M-23.353-40.45-25-43.3" transform="translate(37.82 49.051)" fill="none" stroke="#000" stroke-linecap="round" stroke-linejoin="round" stroke-miterlimit="22.926" stroke-width="1"/>
    <path id="Path_282" data-name="Path 282" d="M-40.45-23.353-43.3-25" transform="translate(49.051 37.82)" fill="none" stroke="#000" stroke-linecap="round" stroke-linejoin="round" stroke-miterlimit="22.926" stroke-width="1"/>
    <path id="Path_283" data-name="Path 283" d="M-36.25-329.227a15.806,15.806,0,0,1-2.556-8.617,15.806,15.806,0,0,1,9.735-14.593" transform="translate(45.479 360.324)" fill="none" stroke="#000" stroke-linecap="round" stroke-linejoin="round" stroke-miterlimit="22.926" stroke-width="1"/>
    <path id="Path_284" data-name="Path 284" d="M0-.006a15.813,15.813,0,0,0,5.637,0" transform="translate(19.662 38.038)" fill="none" stroke="#000" stroke-linecap="round" stroke-linejoin="round" stroke-miterlimit="22.926" stroke-width="1"/>
    <path id="Path_285" data-name="Path 285" d="M-20.267-.23q-.714-.032-1.429,0" transform="translate(43.461 6.92)" fill="none" stroke="#000" stroke-linecap="round" stroke-linejoin="round" stroke-miterlimit="22.926" stroke-width="1"/>
    <path id="Path_286" data-name="Path 286" d="M0,0V1.778" transform="translate(22.48 21.159)" fill="none" stroke="#000" stroke-linecap="round" stroke-linejoin="round" stroke-miterlimit="22.926" stroke-width="1"/>
    <path id="Path_287" data-name="Path 287" d="M0,0H0" transform="translate(12.489 19.67)" fill="none" stroke="#000" stroke-linecap="round" stroke-linejoin="round" stroke-miterlimit="2.613" stroke-width="1"/>
  </g>
</svg>
