<svg xmlns="http://www.w3.org/2000/svg" width="35.469" height="42.221" viewBox="0 0 35.469 42.221">
  <g id="hotel" transform="translate(-40.938)">
    <path id="Path_187" data-name="Path 187" d="M107.821,10.63H78.556V1.657A1.657,1.657,0,0,1,80.213,0h25.951a1.657,1.657,0,0,1,1.657,1.657V10.63Z" transform="translate(-34.516)" fill="#eff3f5"/>
    <path id="Path_188" data-name="Path 188" d="M380.744,0h-2.931a1.657,1.657,0,0,1,1.657,1.657V10.63H382.4V1.657A1.657,1.657,0,0,0,380.744,0Z" transform="translate(-309.095)" fill="#daeaef"/>
    <path id="Path_189" data-name="Path 189" d="M64.554,95.11H96.128v33.1H64.554Z" transform="translate(-21.669 -87.267)" fill="#fd7e42"/>
    <path id="Path_190" data-name="Path 190" d="M411.908,95.11h2.931v33.1h-2.931Z" transform="translate(-340.379 -87.267)" fill="#fa6931"/>
    <path id="Path_191" data-name="Path 191" d="M75.744,90.58H41.6a.663.663,0,0,1-.663-.663V88.7a.663.663,0,0,1,.663-.663H75.744a.663.663,0,0,1,.663.663v1.22A.663.663,0,0,1,75.744,90.58Zm0,32.416H41.6a.663.663,0,0,1-.663-.663v-1.22a.663.663,0,0,1,.663-.663H75.744a.663.663,0,0,1,.663.663v1.22A.663.663,0,0,1,75.744,123Z" transform="translate(0 -80.774)" fill="#a8d0d5"/>
    <g id="Group_80" data-name="Group 80" transform="translate(48.978 1.773)">
      <path id="Path_192" data-name="Path 192" d="M140.321,23.684h-1.055v1.437c0,.17-.207.255-.414.255s-.414-.085-.414-.255V21.748c0-.175.207-.249.414-.249s.414.074.414.249v1.3h1.055v-1.3c0-.175.207-.249.414-.249s.414.074.414.249v3.373c0,.17-.207.255-.414.255s-.414-.085-.414-.255Zm2.418.472V22.751a1.3,1.3,0,0,1,2.6,0v1.405a1.3,1.3,0,0,1-2.6,0Zm1.777-1.405c0-.366-.18-.53-.477-.53s-.472.164-.472.53v1.405c0,.366.175.53.472.53s.477-.164.477-.53Zm4.656-1.252c.175,0,.249.191.249.366,0,.2-.09.377-.249.377h-.732v2.88c0,.17-.207.255-.414.255s-.414-.085-.414-.255v-2.88h-.732c-.159,0-.249-.175-.249-.377,0-.175.074-.366.249-.366Zm2.466,1.618h.8c.159,0,.249.154.249.323,0,.143-.074.313-.249.313h-.8v.9h1.421c.159,0,.249.17.249.366,0,.17-.074.355-.249.355h-1.888c-.18,0-.361-.085-.361-.255V21.754c0-.17.18-.255.361-.255h1.888c.175,0,.249.186.249.355,0,.2-.09.366-.249.366h-1.421Zm3.452,2.259c-.18,0-.361-.085-.361-.255V21.748c0-.175.207-.249.414-.249s.414.074.414.249v2.906h1.209c.159,0,.239.18.239.361s-.08.361-.239.361Z" transform="translate(-138.438 -21.499)" fill="#3c5959"/>
    </g>
    <path id="Path_193" data-name="Path 193" d="M103.262,167.462H97.69a.588.588,0,0,1-.588-.588v-8.24a.588.588,0,0,1,.588-.588h5.572a.588.588,0,0,1,.588.588v8.24A.588.588,0,0,1,103.262,167.462Zm9.729,0h-5.572a.588.588,0,0,1-.588-.588v-8.24a.588.588,0,0,1,.588-.588h5.572a.588.588,0,0,1,.588.588v8.24a.588.588,0,0,1-.588.588Zm9.729,0h-5.572a.588.588,0,0,1-.588-.588v-8.24a.588.588,0,0,1,.588-.588h5.572a.588.588,0,0,1,.588.588v8.24A.588.588,0,0,1,122.72,167.462Z" transform="translate(-51.533 -145.013)" fill="#97e4f9"/>
    <path id="Path_194" data-name="Path 194" d="M103.85,162.136h-2.755v-4.09H99.858v4.09H97.1v1.237h2.756v4.09h1.237v-4.09h2.755Zm9.729,0h-2.755v-4.09h-1.237v4.09h-2.755v1.237h2.755v4.09h1.237v-4.09h2.755Zm9.729,0h-2.756v-4.09h-1.237v4.09H116.56v1.237h2.755v4.09h1.237v-4.09h2.756Z" transform="translate(-51.533 -145.013)" fill="#0acefa"/>
    <path id="Path_195" data-name="Path 195" d="M103.262,324.131H97.69a.588.588,0,0,1-.588-.588V315.3a.588.588,0,0,1,.588-.588h5.572a.588.588,0,0,1,.588.588v8.24a.588.588,0,0,1-.588.588Z" transform="translate(-51.533 -288.763)" fill="#97e4f9"/>
    <path id="Path_196" data-name="Path 196" d="M221.832,328.438h-6.748V315.51a.8.8,0,0,1,.795-.795h5.158a.8.8,0,0,1,.795.795Z" transform="translate(-159.785 -288.763)" fill="#eff3f5"/>
    <path id="Path_197" data-name="Path 197" d="M263.513,314.715h-2.136v13.723h2.931V315.51A.8.8,0,0,0,263.513,314.715Z" transform="translate(-202.261 -288.763)" fill="#daeaef"/>
    <path id="Path_198" data-name="Path 198" d="M339.227,324.131h-5.572a.588.588,0,0,1-.588-.588V315.3a.588.588,0,0,1,.588-.588h5.572a.588.588,0,0,1,.588.588v8.24a.588.588,0,0,1-.588.588Z" transform="translate(-268.039 -288.763)" fill="#97e4f9"/>
    <path id="Path_199" data-name="Path 199" d="M103.85,318.8h-2.755v-4.09H99.858v4.09H97.1v1.237h2.756v4.09h1.237v-4.09h2.755Zm19.458,0h-2.756v-4.09h-1.237v4.09H116.56v1.237h2.755v4.09h1.237v-4.09h2.756Z" transform="translate(-51.533 -288.763)" fill="#0acefa"/>
  </g>
</svg>
