<svg xmlns="http://www.w3.org/2000/svg" width="31.843" height="26" viewBox="0 0 31.843 26">
  <g id="icon_email" transform="translate(-4 -68.812)">
    <path id="Path_37" data-name="Path 37" d="M18.583,182.868a3.908,3.908,0,0,1-5.322,0L.212,171.6Q.1,171.5,0,171.4v18.47c0,2.118,1.326,3.8,2.931,3.8h25.98c1.634,0,2.931-1.718,2.931-3.8V171.4q-.1.1-.212.2Z" transform="translate(4 -98.858)" fill="#fb542b"/>
    <path id="Path_38" data-name="Path 38" d="M1.247,69.082,14.3,77.045a3.15,3.15,0,0,0,3.252,0L30.6,69.082a2.507,2.507,0,0,0,1.247-2.133,2.818,2.818,0,0,0-2.93-2.682H2.93A2.818,2.818,0,0,0,0,66.95a2.507,2.507,0,0,0,1.247,2.132Z" transform="translate(4 4.546)" fill="#fb542b"/>
  </g>
</svg>
