<svg xmlns="http://www.w3.org/2000/svg" width="18.415" height="17.597" viewBox="0 0 18.415 17.597">
  <path id="link" d="M45.483,34.757v6.809H41.536V35.213c0-1.6-.57-2.685-2-2.685a2.159,2.159,0,0,0-2.025,1.444,2.7,2.7,0,0,0-.131.962v6.631H33.432s.053-10.76,0-11.874h3.948v1.683c-.008.013-.019.026-.026.039h.026v-.039a3.92,3.92,0,0,1,3.558-1.961C43.536,29.414,45.483,31.111,45.483,34.757ZM29.3,23.969a2.057,2.057,0,1,0-.052,4.1h.026a2.058,2.058,0,1,0,.026-4.1Zm-2,17.6h3.947V29.693H27.3Z" transform="translate(-27.068 -23.969)" fill="#fff"/>
</svg>
