<svg xmlns="http://www.w3.org/2000/svg" width="45.342" height="45.384" viewBox="0 0 45.342 45.384">
  <g id="online_" data-name="online " transform="translate(0 0)">
    <path id="Path_249" data-name="Path 249" d="M33.48,7.3a5.041,5.041,0,0,1-3.042,1.017,5.127,5.127,0,0,1-2.83-.856L26.7,6.851l-.907.607a5.127,5.127,0,0,1-2.83.856A5.041,5.041,0,0,1,19.922,7.3l-.007.007a6.95,6.95,0,0,0-.527,2.647V11.37h-.731a2.183,2.183,0,0,0-1.821.973l-.541-.541a4.414,4.414,0,0,1,0-6.245l.168-.168a2.924,2.924,0,0,1,2.925-2.925h.731A5,5,0,0,1,23.652,1h.41a5.026,5.026,0,0,1,2.231.527l.41.2.41-.2A5.026,5.026,0,0,1,29.341,1h.41a5,5,0,0,1,3.532,1.463h.731A2.921,2.921,0,0,1,36.94,5.388l.168.168a4.414,4.414,0,0,1,0,6.245l-.534.534h-.007a2.2,2.2,0,0,0-1.821-.965h-.731V9.951A6.95,6.95,0,0,0,33.488,7.3Z" transform="translate(-4.03 -0.269)" fill="#b27946"/>
    <path id="Path_250" data-name="Path 250" d="M28.564,34.26l-.022-.1a4.918,4.918,0,0,0,1.28-.541,3.089,3.089,0,0,0,1.112-1.507L30.97,32v.132l4.5.585a6.588,6.588,0,0,1,5.734,6.531v.8H36.089v1.221L31.7,36.388l-.154-.453a2.541,2.541,0,0,0-2.984-1.675Zm.212,5.053,5.434,7.854A3.872,3.872,0,0,0,36.089,48.6v4.651L20,53.208V48.6a3.872,3.872,0,0,0,1.879-1.433l5.434-7.854.453-.154a1.83,1.83,0,0,0,.278-.11,1.83,1.83,0,0,0,.278.11Z" transform="translate(-5.374 -8.598)" fill="#e6e9ed"/>
    <path id="Path_251" data-name="Path 251" d="M26.661,34.157l.022.1a2.07,2.07,0,0,0-.519.176,2.583,2.583,0,0,0-1.09-.241,2.541,2.541,0,0,0-2.413,1.741l-.154.453-4.388,4.878V40.045H13v-.8a6.588,6.588,0,0,1,5.734-6.531l4.5-.585V32l.037.11a3.051,3.051,0,0,0,2.889,2.084Z" transform="translate(-3.493 -8.598)" fill="#e6e9ed"/>
    <path id="Path_252" data-name="Path 252" d="M32.09,35A2.541,2.541,0,0,1,34.5,36.741l.154.453,4.388,4.878V40.851h5.119v4.936a3.84,3.84,0,0,1-5.119,3.62,3.872,3.872,0,0,1-1.879-1.433l-5.434-7.854-.453-.154a1.829,1.829,0,0,1-.278-.11,2.551,2.551,0,0,0,.717-4.11,2.49,2.49,0,0,0-.717-.5,2.07,2.07,0,0,1,.519-.176A2.436,2.436,0,0,1,32.09,35Z" transform="translate(-8.329 -9.404)" fill="#f0d0b4"/>
    <path id="Path_253" data-name="Path 253" d="M18.119,36.747l4.388-4.878.154-.453a2.541,2.541,0,0,1,2.413-1.741,2.583,2.583,0,0,1,1.09.241,2.49,2.49,0,0,1,.717.5,2.549,2.549,0,0,1-.995,4.22l-.453.154L20,42.648a3.841,3.841,0,0,1-7-2.187V35.525h5.119Zm17.91-20.6a2.213,2.213,0,0,1,.373,1.229,2.2,2.2,0,0,1-2.194,2.194H33.47c.007-.073.007-.154.007-.234V15.18h.731a2.2,2.2,0,0,1,1.821.965Z" transform="translate(-3.493 -4.079)" fill="#f0d0b4"/>
    <path id="Path_254" data-name="Path 254" d="M28.81,27.978l-.5.037a3.051,3.051,0,0,1-2.889-2.084l-.037-.11V23.758a6.406,6.406,0,0,1-4.381-5.851C21,17.834,21,17.754,21,17.673V12.1a6.95,6.95,0,0,1,.527-2.647l.007-.007a5.041,5.041,0,0,0,3.042,1.017,5.127,5.127,0,0,0,2.83-.856L28.313,9l.907.607a5.127,5.127,0,0,0,2.83.856,5.041,5.041,0,0,0,3.042-1.017l.007.007a6.95,6.95,0,0,1,.527,2.647v5.573c0,.08,0,.161-.007.234a6.411,6.411,0,0,1-4.381,5.851V25.82l-.037.11a3.089,3.089,0,0,1-1.112,1.507,4.918,4.918,0,0,1-1.28.541Z" transform="translate(-5.642 -2.418)" fill="#f0d0b4"/>
    <path id="Path_255" data-name="Path 255" d="M19.925,19.334c0,.08,0,.161.007.234h-.739a2.194,2.194,0,0,1,0-4.388h.731Z" transform="translate(-4.568 -4.079)" fill="#f0d0b4"/>
    <path id="Path_256" data-name="Path 256" d="M29.334,20.255l.655-1.308-.829-.415a6.959,6.959,0,0,0,.5-2.587H28.2a5.489,5.489,0,0,1-.577,2.444l-.4.808Zm-.4,3A3.08,3.08,0,0,0,31.7,21.546l.077-.154-1.308-.653-.077.154a1.636,1.636,0,0,1-2.925,0l-.077-.154-1.308.653.077.155a3.083,3.083,0,0,0,2.771,1.712Zm-1.677-6.931-1.034-1.034L26,15.506a1.058,1.058,0,0,1-1.463,0l-.214-.214-1.034,1.034.214.215a2.5,2.5,0,0,0,3.531,0Zm5.334.946a2.481,2.481,0,0,0,1.765-.731l.214-.214-1.034-1.034-.214.214a1.058,1.058,0,0,1-1.463,0l-.214-.214-1.034,1.034.214.215a2.481,2.481,0,0,0,1.765.731Z" transform="translate(-6.258 -4.109)"/>
    <path id="Path_257" data-name="Path 257" d="M30.193,23.4l-3.866-.5V21.85a7.133,7.133,0,0,0,4.316-5.625h.072A2.928,2.928,0,0,0,33.641,13.3a2.894,2.894,0,0,0-.213-1.082l.169-.169a5.146,5.146,0,0,0,.03-7.246,3.661,3.661,0,0,0-3.643-3.34h-.44A5.682,5.682,0,0,0,25.721,0h-.41a5.76,5.76,0,0,0-2.56.6l-.08.041L22.59.6a5.76,5.76,0,0,0-2.56-.6h-.41A5.682,5.682,0,0,0,15.8,1.463h-.44A3.661,3.661,0,0,0,11.715,4.8a5.145,5.145,0,0,0,.031,7.246l.169.169A2.878,2.878,0,0,0,11.7,13.3a2.928,2.928,0,0,0,2.925,2.925H14.7a7.133,7.133,0,0,0,4.316,5.625v1.045l-3.866.5a7.33,7.33,0,0,0-6.373,7.252v5.735A4.576,4.576,0,0,0,13.9,40.92V45.34l17.552.045V40.92a4.576,4.576,0,0,0,5.119-4.537V30.648A7.332,7.332,0,0,0,30.193,23.4Zm.522-8.634V11.836a1.463,1.463,0,1,1,0,2.925ZM11.7,8.41a3.658,3.658,0,0,1,1.079-2.6l.384-.384v-.3a2.2,2.2,0,0,1,2.194-2.194h1.034l.214-.214A4.234,4.234,0,0,1,19.62,1.463h.41a4.285,4.285,0,0,1,1.906.45l.736.368.736-.368a4.288,4.288,0,0,1,1.906-.45h.41a4.232,4.232,0,0,1,3.014,1.248l.214.214h1.034a2.2,2.2,0,0,1,2.194,2.194v.3l.384.384a3.683,3.683,0,0,1,0,5.208l-.019.019a2.9,2.9,0,0,0-1.828-.66V9.68a7.625,7.625,0,0,0-.4-2.416c.072-.065.147-.127.216-.2l.7-.7L30.2,5.333l-.7.7a4.369,4.369,0,0,1-5.513.546L22.671,5.7l-1.315.876a4.368,4.368,0,0,1-5.513-.546l-.7-.7L14.109,6.367l.7.7c.069.069.144.13.216.2a7.633,7.633,0,0,0-.4,2.417v.694a2.9,2.9,0,0,0-1.828.66l-.019-.019A3.657,3.657,0,0,1,11.7,8.41ZM13.164,13.3a1.464,1.464,0,0,1,1.463-1.463v2.925A1.464,1.464,0,0,1,13.164,13.3Zm2.925,1.956V9.679a6.172,6.172,0,0,1,.2-1.539A5.824,5.824,0,0,0,22.168,7.8l.5-.336.5.336a5.826,5.826,0,0,0,5.878.344,6.177,6.177,0,0,1,.2,1.539v5.576a5.679,5.679,0,0,1-3.888,5.393l-.5.167v2.467a2.312,2.312,0,0,1-4.388,0V20.816l-.5-.167a5.679,5.679,0,0,1-3.888-5.394Zm-.752,9.591,4-.519a3.751,3.751,0,0,0,.7.929,3.277,3.277,0,0,0-1.567,1.853l-.1.306L15.358,30.76v-1.2a1.754,1.754,0,0,1,.517-1.248l-1.034-1.035a3.207,3.207,0,0,0-.946,2.283v1.16H10.238v-.067a5.865,5.865,0,0,1,5.1-5.8Zm-5.1,11.537V32.178H13.9v.207l-1.028,1.142A4.534,4.534,0,0,0,11.7,36.566h1.463a3.078,3.078,0,0,1,.791-2.061l5.706-6.339.2-.595a1.819,1.819,0,1,1,2.3,2.3l-.682.227L15.9,38.153a3.108,3.108,0,0,1-5.663-1.77Zm19.746,7.535-14.626-.037v-3.4a4.561,4.561,0,0,0,1.746-1.5l5.3-7.653.22-.073c.017-.006.031-.015.048-.02s.033.015.051.02l.219.073,5.3,7.653a4.561,4.561,0,0,0,1.746,1.5v3.437ZM32,39.491a3.107,3.107,0,0,1-2.555-1.339l-5.417-7.823a3.233,3.233,0,0,0,.347-3.892,1.814,1.814,0,0,1,1.112,1.134l.2.6,5.706,6.339a3.074,3.074,0,0,1,.791,2.06h1.463a4.535,4.535,0,0,0-1.166-3.039l-1.028-1.142v-.207H35.1v4.205A3.111,3.111,0,0,1,32,39.491ZM35.1,30.715H31.447v-1.16a3.207,3.207,0,0,0-.946-2.283l-1.034,1.035a1.754,1.754,0,0,1,.517,1.248v1.2l-3.011-3.346-.1-.306a3.273,3.273,0,0,0-1.566-1.852,3.767,3.767,0,0,0,.7-.929l4,.519a5.866,5.866,0,0,1,5.1,5.8Zm5.851-27.79h1.463V5.851H40.954Zm1.463,2.925h2.925V7.313H42.417ZM40.954,7.313h1.463v2.925H40.954ZM38.029,5.851h2.925V7.313H38.029Zm-35.1,0H4.388V8.776H2.925ZM4.388,8.776H7.313v1.463H4.388ZM2.925,10.238H4.388v2.925H2.925ZM0,8.776H2.925v1.463H0Zm7.313,7.313H8.776v1.463H7.313ZM5.851,17.552H7.313v1.463H5.851Zm1.463,1.463H8.776v1.463H7.313Z"/>
    <path id="Path_258" data-name="Path 258" d="M9.313,23.983h1.463v1.463H9.313ZM3.463,31.3H4.925v1.463H3.463ZM2,32.759H3.463v1.463H2Zm1.463,1.463H4.925v1.463H3.463Zm1.463-1.463H6.388v1.463H4.925ZM3.463,44.46H4.925v1.463H3.463ZM2,45.922H3.463v1.463H2Zm1.463,1.463H4.925v1.463H3.463Zm1.463-1.463H6.388v1.463H4.925ZM34.178,23.936h1.463V25.4H34.178ZM32.715,25.4h1.463v1.463H32.715Zm1.463,1.463h1.463v1.463H34.178ZM35.641,25.4H37.1v1.463H35.641Zm7.313,5.9h1.463v1.463H42.954Zm-1.463,1.463h1.463v1.463H41.491Zm1.463,1.463h1.463v1.463H42.954Zm1.463-1.463h1.463v1.463H44.417ZM40.029,45.191h1.463v1.463H40.029Zm-1.463,1.463h1.463v1.463H38.566Zm1.463,1.463h1.463v1.463H40.029Zm1.463-1.463h1.463v1.463H41.491Z" transform="translate(-0.537 -6.431)"/>
  </g>
</svg>
