<svg xmlns="http://www.w3.org/2000/svg" width="33.429" height="42.593" viewBox="0 0 33.429 42.593">
  <g id="pacakage" transform="translate(-55.081)">
    <path id="Path_226" data-name="Path 226" d="M248.917,7.832a.643.643,0,0,1-.643-.643V.749a.643.643,0,0,1,1.285,0V7.189A.643.643,0,0,1,248.917,7.832Z" transform="translate(-177.121 -0.097)" fill="#918291"/>
    <path id="Path_227" data-name="Path 227" d="M92.689,348.826h27.172v11.089H92.689Z" transform="translate(-34.479 -319.807)" fill="#fe7d43"/>
    <path id="Path_228" data-name="Path 228" d="M224.718,391.466h-6.244v-7.272a.954.954,0,0,1,.954-.954h4.335a.954.954,0,0,1,.954.954v7.272Z" transform="translate(-149.8 -351.358)" fill="#fead8a"/>
    <path id="Path_229" data-name="Path 229" d="M164.093,104.32H145.75L147.676,91.5a7.327,7.327,0,0,1,14.492,0Z" transform="translate(-83.126 -78.164)" fill="#fe7d43"/>
    <path id="Path_230" data-name="Path 230" d="M162.168,94.332a7.328,7.328,0,0,0-5.32-5.981q.145.112.284.231a7.317,7.317,0,0,1,2.466,4.464l1.449,9.654a2.761,2.761,0,0,1-2.73,3.171H145.943l-.193,1.286h18.343Z" transform="translate(-83.126 -81.001)" fill="#fd6930"/>
    <path id="Path_231" data-name="Path 231" d="M169.967,123.009h14.314a7.3,7.3,0,0,0-1.317-2.863h-11.68a7.3,7.3,0,0,0-1.317,2.863Z" transform="translate(-105.329 -110.151)" fill="#fedf30"/>
    <path id="Path_232" data-name="Path 232" d="M307.5,122.063a6.417,6.417,0,0,0-1.044-1.917h-1.791a7.323,7.323,0,0,1,.626,2.05l.122.813h2.36A7.335,7.335,0,0,0,307.5,122.063Z" transform="translate(-228.823 -110.151)" fill="#fed402"/>
    <path id="Path_233" data-name="Path 233" d="M215.654,167.856H207.6l1.431-13.3h5.19Z" transform="translate(-139.833 -141.7)" fill="#fd6930"/>
    <path id="Path_234" data-name="Path 234" d="M215.022,298.48H207.74l-.138,1.286h8.052l-.143-1.329A2.794,2.794,0,0,1,215.022,298.48Z" transform="translate(-139.833 -273.609)" fill="#fd5426"/>
    <path id="Path_235" data-name="Path 235" d="M219.046,199.39a.475.475,0,0,1-.069,0H211.74a.474.474,0,0,1-.069,0l.138-1.281h7.1Zm-.621-5.721h-6.139l.137-1.278c.031-.005,5.84-.006,5.869,0Z" transform="translate(-143.563 -176.382)" fill="#fedf30"/>
    <path id="Path_236" data-name="Path 236" d="M321.383,193.383a.577.577,0,0,1-.117.011h-1.855a.643.643,0,0,1,0-1.285h1.779Zm.86,5.729a.574.574,0,0,1-.1.008h-1.855a.643.643,0,1,1,0-1.285h1.759Z" transform="translate(-241.752 -176.128)" fill="#fed402"/>
    <path id="Path_237" data-name="Path 237" d="M154.93,192.751a.642.642,0,0,1-.643.643h-1.855a.577.577,0,0,1-.1-.008l.192-1.278h1.758A.642.642,0,0,1,154.93,192.751Zm-.86,5.726a.643.643,0,0,1-.643.643h-1.855a.575.575,0,0,1-.1-.008l.191-1.278h1.759A.643.643,0,0,1,154.07,198.476Z" transform="translate(-88.378 -176.127)" fill="#fedf30"/>
    <path id="Path_238" data-name="Path 238" d="M358.75,348.83h3.461v11.089H358.75Z" transform="translate(-278.407 -319.811)" fill="#fd6930"/>
    <path id="Path_239" data-name="Path 239" d="M343.3,348.83h3.461v11.089H343.3Z" transform="translate(-264.24 -319.811)" fill="#fd6930"/>
    <path id="Path_240" data-name="Path 240" d="M343.3,375.511h3.461V376.8H343.3Zm0,2.863h3.461v1.286H343.3Zm0,2.862h3.461v1.286H343.3Z" transform="translate(-264.24 -344.272)" fill="#fedf30"/>
    <path id="Path_241" data-name="Path 241" d="M142.556,348.83h3.461v11.089h-3.461Z" transform="translate(-80.198 -319.811)" fill="#fd6930"/>
    <path id="Path_242" data-name="Path 242" d="M127.1,348.83h3.461v11.089H127.1Z" transform="translate(-66.031 -319.811)" fill="#fd6930"/>
    <path id="Path_243" data-name="Path 243" d="M127.1,375.511h3.461V376.8H127.1Zm0,2.863h3.461v1.286H127.1Zm0,2.862h3.461v1.286H127.1Z" transform="translate(-66.031 -344.272)" fill="#fedf30"/>
    <path id="Path_244" data-name="Path 244" d="M87.5,484.609H56.09a1.173,1.173,0,0,1-1.009-1.286v-.857a.343.343,0,0,1,.343-.343H88.167a.343.343,0,0,1,.343.343v.857A1.173,1.173,0,0,1,87.5,484.609Z" transform="translate(0 -442.016)" fill="#918291"/>
    <path id="Path_245" data-name="Path 245" d="M248.274,4.678V.66a.66.66,0,0,1,.66-.66h4.175a.477.477,0,0,1,.285.86Z" transform="translate(-177.121 0)" fill="#fe646f"/>
    <path id="Path_246" data-name="Path 246" d="M253.108,0h-1.286A5.336,5.336,0,0,1,250.7,1.591a5.413,5.413,0,0,1-2.426,1.351V4.678L253.393.86A.477.477,0,0,0,253.108,0Z" transform="translate(-177.12)" fill="#fd4755"/>
    <path id="Path_247" data-name="Path 247" d="M76.913,314.412h27.172a1.431,1.431,0,1,1,0,2.863H76.913a1.431,1.431,0,1,1,0-2.863Z" transform="translate(-18.704 -288.256)" fill="#fedf30"/>
    <path id="Path_248" data-name="Path 248" d="M104.167,314.412H103.02a1.46,1.46,0,0,1,.007.146,1.431,1.431,0,0,1-1.431,1.431H75.571A1.432,1.432,0,0,0,77,317.275h27.172a1.431,1.431,0,1,0,0-2.863Z" transform="translate(-18.785 -288.256)" fill="#fed402"/>
  </g>
</svg>
