<svg xmlns="http://www.w3.org/2000/svg" width="44.9" height="35.505" viewBox="0 0 44.9 35.505">
  <g id="taxi" transform="translate(0 -53.571)">
    <path id="Path_163" data-name="Path 163" d="M42.866,170.178H40.341a2.037,2.037,0,0,0-2.035,2.035v1.964l-.839,2.268,1.289.476.715-1.935h2.655a2.777,2.777,0,0,0,2.774-2.774A2.037,2.037,0,0,0,42.866,170.178ZM6.594,172.213a2.037,2.037,0,0,0-2.035-2.035H2.034A2.037,2.037,0,0,0,0,172.213a2.777,2.777,0,0,0,2.774,2.774H5.429l.715,1.935,1.289-.476-.839-2.268v-1.964Z" transform="translate(0 -106.381)" fill="#e5ba03"/>
    <path id="Path_164" data-name="Path 164" d="M171.979,53.571H157.148l-1.374,6.977h17.579Z" transform="translate(-142.113)" fill="#f9ca00"/>
    <path id="Path_165" data-name="Path 165" d="M29.893,358.916v6.467a1.368,1.368,0,0,0,1.368,1.368h5.277a1.368,1.368,0,0,0,1.368-1.368v-6.964m23.63,0v6.964a1.368,1.368,0,0,0,1.368,1.368h5.277a1.368,1.368,0,0,0,1.368-1.368v-7.444" transform="translate(-27.271 -277.676)" fill="#2b2a32"/>
    <path id="Path_166" data-name="Path 166" d="M166.234,379.518H151.4a1.924,1.924,0,0,1-1.924-1.924l12.325-1.648,6.359,1.648A1.924,1.924,0,0,1,166.234,379.518Z" transform="translate(-136.366 -294.104)" fill="#0d1b24"/>
    <path id="Path_167" data-name="Path 167" d="M55.8,244.354H18.866a2.55,2.55,0,0,0-2.55,2.55V254.8H58.355V246.9A2.55,2.55,0,0,0,55.8,244.354Z" transform="translate(-14.885 -174.052)" fill="#f9ca00"/>
    <path id="Path_168" data-name="Path 168" d="M22.957,244.354H18.866a2.55,2.55,0,0,0-2.55,2.55V254.8h4.091V246.9A2.55,2.55,0,0,1,22.957,244.354Z" transform="translate(-14.885 -174.052)" fill="#e5ba03"/>
    <path id="Path_169" data-name="Path 169" d="M136.945,272h20.882v3.984H136.945Z" transform="translate(-124.935 -199.274)" fill="#616970"/>
    <path id="Path_170" data-name="Path 170" d="M45,344.178v2.282a1.126,1.126,0,0,1-1.126,1.126H1.25a1.125,1.125,0,0,1-1.126-1.126v-2.282a1.125,1.125,0,0,1,1.126-1.126H43.879A1.126,1.126,0,0,1,45,344.178Z" transform="translate(-0.113 -264.095)" fill="#8292a3"/>
    <path id="Path_171" data-name="Path 171" d="M78.668,344.178v2.282a1.126,1.126,0,0,1-1.126,1.126H38.15a1.125,1.125,0,0,1-1.126-1.126v-2.282a1.125,1.125,0,0,1,1.126-1.126H77.543a1.126,1.126,0,0,1,1.126,1.126Z" transform="translate(-33.777 -264.095)" fill="#9aa7b8"/>
    <path id="Path_172" data-name="Path 172" d="M108.732,142.886H77.408l2.555-7.673a3.041,3.041,0,0,1,2.886-2.081H103.29a3.041,3.041,0,0,1,2.886,2.081Z" transform="translate(-70.62 -72.584)" fill="#c0eaf9"/>
    <path id="Path_173" data-name="Path 173" d="M109.817,165.754H78.724l1.9-5.474a3.158,3.158,0,0,1,3.005-2.081h21.287a3.159,3.159,0,0,1,3.005,2.081Z" transform="translate(-71.82 -95.453)" fill="#a0d9f2"/>
    <path id="Path_174" data-name="Path 174" d="M99.263,136.6l-2.772-8.325a2.352,2.352,0,0,0-2.234-1.611H73.815a2.352,2.352,0,0,0-2.234,1.611L68.81,136.6l-1.3-.434,2.772-8.325a3.724,3.724,0,0,1,3.538-2.551H94.257a3.724,3.724,0,0,1,3.538,2.551l2.772,8.325Z" transform="translate(-61.586 -65.433)" fill="#f9ca00"/>
    <path id="Path_175" data-name="Path 175" d="M150.677,269.529H129.795a.687.687,0,0,1-.687-.687v-3.984a.687.687,0,0,1,.687-.687h20.882a.687.687,0,0,1,.687.687v3.984A.687.687,0,0,1,150.677,269.529Zm-20.2-1.374H149.99v-2.61H130.482v2.61Z" transform="translate(-117.786 -192.131)" fill="#e5ba03"/>
    <path id="Path_176" data-name="Path 176" d="M74.544,283h5.77v3.022h-5.77Zm-31.6,0h5.77v3.022h-5.77Z" transform="translate(-39.181 -209.307)" fill="#feffff"/>
    <path id="Path_177" data-name="Path 177" d="M189.047,69.39c.2,0,.287.219.287.421,0,.232-.1.433-.287.433h-.841v3.311c0,.2-.238.293-.476.293s-.476-.1-.476-.293V70.243h-.841c-.183,0-.287-.2-.287-.433,0-.2.085-.421.287-.421Zm.28,4.067a.318.318,0,0,1,.012-.067l1.134-3.72c.067-.214.341-.317.622-.317s.555.1.622.317l1.14,3.72a.314.314,0,0,1,.012.067c0,.226-.348.39-.61.39-.152,0-.274-.049-.311-.177l-.207-.762h-1.287l-.207.762c-.037.128-.159.177-.311.177C189.675,73.847,189.327,73.682,189.327,73.457Zm2.213-1.28-.445-1.634-.445,1.634Zm3.457.1-.89,1.512a.256.256,0,0,1-.226.1c-.262,0-.634-.207-.634-.47a.33.33,0,0,1,.055-.171l1.055-1.628-1.012-1.622a.345.345,0,0,1-.061-.189c0-.256.348-.451.616-.451a.3.3,0,0,1,.287.159L195,70.926l.811-1.415a.3.3,0,0,1,.287-.159c.268,0,.616.2.616.451a.345.345,0,0,1-.061.189l-1.012,1.622,1.055,1.628a.33.33,0,0,1,.055.171c0,.262-.372.47-.634.47a.249.249,0,0,1-.226-.1L195,72.274Zm2.433-2.6c0-.2.238-.287.476-.287s.476.085.476.287v3.878c0,.2-.238.293-.476.293s-.476-.1-.476-.293Z" transform="translate(-169.803 -14.398)" fill="#2b2a32"/>
    <path id="Path_178" data-name="Path 178" d="M129.112,272h1.374v3.984h-1.374Zm3.48,0h1.374v3.984h-1.374Zm3.48,0h1.374v3.984h-1.374Zm3.48,0h1.374v3.984h-1.374Zm3.48,0h1.374v3.984h-1.374Zm3.481,0h1.374v3.984h-1.374Zm3.48,0h1.374v3.984h-1.374Z" transform="translate(-117.789 -199.274)" fill="#e5ba03"/>
  </g>
</svg>
