<svg xmlns="http://www.w3.org/2000/svg" width="20.162" height="16.385" viewBox="0 0 20.162 16.385">
  <path id="twitter" d="M20.162,1.94a8.259,8.259,0,0,1-2.376.651A4.143,4.143,0,0,0,19.605.3a8.286,8.286,0,0,1-2.627,1A4.139,4.139,0,0,0,9.929,5.078,11.743,11.743,0,0,1,1.4.757,4.142,4.142,0,0,0,2.683,6.28,4.119,4.119,0,0,1,.811,5.762,4.139,4.139,0,0,0,4.128,9.87a4.146,4.146,0,0,1-1.868.071,4.14,4.14,0,0,0,3.864,2.872A8.317,8.317,0,0,1,0,14.527a11.71,11.71,0,0,0,6.341,1.858A11.7,11.7,0,0,0,18.1,4.081,8.422,8.422,0,0,0,20.162,1.94Z" fill="#fff"/>
</svg>
