<svg xmlns="http://www.w3.org/2000/svg" width="47.19" height="46.399" viewBox="0 0 47.19 46.399">
  <g id="ujjain_dar" transform="translate(-8.214 -14.99)">
    <path id="Path_289" data-name="Path 289" d="M25.762,90.278H20.618a4.061,4.061,0,0,0-4.06,4.062v17.893h43.9V105.2a4.357,4.357,0,0,0-.953-2.706l-6.5-8.094L51,91.9a4.325,4.325,0,0,0-3.372-1.617H25.762Z" transform="translate(-6.7 -60.458)" fill="#ed6e7a"/>
    <path id="Path_290" data-name="Path 290" d="M59.256,111.324h-43.9a.3.3,0,0,1-.3-.3V93.135a4.361,4.361,0,0,1,4.355-4.357h5.144a.3.3,0,1,1,0,.591H19.413a3.769,3.769,0,0,0-3.764,3.766v17.6H58.96v-6.741a4.059,4.059,0,0,0-.888-2.521l-8.508-10.6a4.012,4.012,0,0,0-3.142-1.507H27.334a.3.3,0,1,1,0-.591H46.423a4.6,4.6,0,0,1,3.6,1.728l8.507,10.6a4.654,4.654,0,0,1,1.018,2.891v7.036A.3.3,0,0,1,59.256,111.324Z" transform="translate(-5.496 -59.254)" fill="#3a312a"/>
    <path id="Path_291" data-name="Path 291" d="M185.619,119.831H174.229a1.053,1.053,0,0,1-1.091-.837V112.2a1.013,1.013,0,0,1,1.014-1.014h4.594l6.5,8.094A4.289,4.289,0,0,1,185.619,119.831Z" transform="translate(-132.438 -77.25)" fill="#89c4db"/>
    <path id="Path_292" data-name="Path 292" d="M184.414,118.922H173.025a1.344,1.344,0,0,1-1.384-1.095.307.307,0,0,1,0-.038V111a1.311,1.311,0,0,1,1.31-1.31h4.594a.3.3,0,0,1,.23.111l6.5,8.094a4.614,4.614,0,0,1,.4.587.3.3,0,0,1-.256.443Zm-12.185-1.154a.773.773,0,0,0,.8.563h10.839l-.054-.069-6.41-7.984h-4.452a.72.72,0,0,0-.719.719Z" transform="translate(-131.233 -76.045)" fill="#3a312a"/>
    <path id="Path_293" data-name="Path 293" d="M36.995,26.166s.672,2.494,2.606,2.609c0,0-2.582.891-2.625,2.8,0,0-.508-2.673-2.547-2.769A3.052,3.052,0,0,0,36.995,26.166Z" transform="translate(-21.05 -8.975)" fill="#d3d751"/>
    <path id="Path_294" data-name="Path 294" d="M35.768,30.665a.3.3,0,0,1-.29-.24c0-.024-.492-2.446-2.271-2.53a.3.3,0,0,1-.031-.587,2.735,2.735,0,0,0,2.317-2.37.3.3,0,0,1,.58-.052c.006.023.642,2.29,2.338,2.392a.3.3,0,0,1,.079.574c-.024.008-2.388.849-2.427,2.525a.3.3,0,0,1-.3.289Zm-1.526-3.1a3.444,3.444,0,0,1,1.5,1.749,4.2,4.2,0,0,1,1.764-1.66,3.609,3.609,0,0,1-1.643-1.718,3.171,3.171,0,0,1-1.616,1.63Z" transform="translate(-19.843 -7.772)" fill="#3a312a"/>
    <path id="Path_295" data-name="Path 295" d="M18.348,43.146s.475,1.764,1.843,1.845c0,0-1.826.631-1.857,1.979,0,0-.359-1.891-1.8-1.959A2.159,2.159,0,0,0,18.348,43.146Z" transform="translate(-6.68 -22.61)" fill="#d3d751"/>
    <path id="Path_296" data-name="Path 296" d="M17.127,46.062a.3.3,0,0,1-.29-.24c0-.016-.336-1.663-1.525-1.719a.3.3,0,0,1-.031-.587,1.852,1.852,0,0,0,1.565-1.6.3.3,0,0,1,.58-.052c0,.016.439,1.56,1.576,1.628a.3.3,0,0,1,.079.574c-.016.006-1.632.582-1.658,1.706A.3.3,0,0,1,17.127,46.062Zm-.891-2.271a2.527,2.527,0,0,1,.877,1.04,3.088,3.088,0,0,1,1.057-.98,2.637,2.637,0,0,1-.974-1.029A2.357,2.357,0,0,1,16.236,43.791Z" transform="translate(-5.473 -21.406)" fill="#3a312a"/>
    <path id="Path_297" data-name="Path 297" d="M18.348,16.489s.475,1.764,1.843,1.846c0,0-1.826.631-1.857,1.979,0,0-.359-1.891-1.8-1.959A2.16,2.16,0,0,0,18.348,16.489Z" transform="translate(-6.68 -1.204)" fill="#d3d751"/>
    <path id="Path_298" data-name="Path 298" d="M17.13,19.4a.3.3,0,0,1-.29-.24c0-.016-.336-1.663-1.525-1.719a.3.3,0,0,1-.031-.587,1.852,1.852,0,0,0,1.565-1.6.3.3,0,0,1,.58-.052c0,.016.439,1.56,1.576,1.628a.3.3,0,0,1,.079.574c-.016.006-1.632.582-1.658,1.706A.3.3,0,0,1,17.13,19.4Zm-.891-2.271a2.527,2.527,0,0,1,.877,1.04,3.09,3.09,0,0,1,1.057-.98,2.636,2.636,0,0,1-.974-1.029A2.356,2.356,0,0,1,16.239,17.134Z" transform="translate(-5.476 0)" fill="#3a312a"/>
    <path id="Path_299" data-name="Path 299" d="M36.259,171.4H16.56v5.975h43.9V171.4h-24.2Z" transform="translate(-6.702 -125.604)" fill="#d3d650"/>
    <path id="Path_300" data-name="Path 300" d="M59.258,176.47h-43.9a.3.3,0,0,1-.3-.3V170.2a.3.3,0,0,1,.3-.3h19.7a.3.3,0,0,1,0,.591h-19.4v5.384H58.962v-5.384H37.885a.3.3,0,1,1,0-.591H59.258a.3.3,0,0,1,.3.3v5.975A.3.3,0,0,1,59.258,176.47Z" transform="translate(-5.497 -124.4)" fill="#3a312a"/>
    <path id="Path_301" data-name="Path 301" d="M10.735,201.738H55.293a1.021,1.021,0,1,1,0,2.041H10.735a1.021,1.021,0,1,1,0-2.041Z" transform="translate(-1.205 -149.963)" fill="#87796f"/>
    <path id="Path_302" data-name="Path 302" d="M54.088,202.869H9.53a1.316,1.316,0,0,1,0-2.632H54.088a1.316,1.316,0,0,1,0,2.632ZM9.53,200.828a.725.725,0,0,0,0,1.451H54.088a.725.725,0,1,0,0-1.451Z" transform="translate(0 -148.758)" fill="#3a312a"/>
    <circle id="Ellipse_71" data-name="Ellipse 71" cx="5.434" cy="5.434" r="5.434" transform="matrix(0.585, -0.811, 0.811, 0.585, 13.813, 55.026)" fill="#87796f"/>
    <path id="Path_303" data-name="Path 303" d="M51.822,194.3a5.729,5.729,0,1,1,5.729-5.729A5.736,5.736,0,0,1,51.822,194.3Zm0-10.868a5.138,5.138,0,1,0,5.138,5.138A5.144,5.144,0,0,0,51.822,183.43Z" transform="translate(-30.418 -134.787)" fill="#3a312a"/>
    <circle id="Ellipse_72" data-name="Ellipse 72" cx="2.406" cy="2.406" r="2.406" transform="translate(18.276 52.478) rotate(-22.48)" fill="#f8e4c8"/>
    <path id="Path_304" data-name="Path 304" d="M64.164,203.612a2.7,2.7,0,1,1,2.7-2.7A2.705,2.705,0,0,1,64.164,203.612Zm0-4.813a2.111,2.111,0,1,0,2.111,2.111A2.113,2.113,0,0,0,64.164,198.8Z" transform="translate(-42.759 -147.129)" fill="#3a312a"/>
    <circle id="Ellipse_73" data-name="Ellipse 73" cx="5.434" cy="5.434" r="5.434" transform="matrix(0.585, -0.811, 0.811, 0.585, 36.084, 55.032)" fill="#87796f"/>
    <path id="Path_305" data-name="Path 305" d="M164.853,194.3a5.729,5.729,0,1,1,5.729-5.729A5.736,5.736,0,0,1,164.853,194.3Zm0-10.868a5.138,5.138,0,1,0,5.138,5.138A5.144,5.144,0,0,0,164.853,183.43Z" transform="translate(-121.184 -134.787)" fill="#3a312a"/>
    <circle id="Ellipse_74" data-name="Ellipse 74" cx="2.406" cy="2.406" r="2.406" transform="translate(40.543 52.471) rotate(-22.48)" fill="#f8e4c8"/>
    <path id="Path_306" data-name="Path 306" d="M177.195,203.612a2.7,2.7,0,1,1,2.7-2.7A2.705,2.705,0,0,1,177.195,203.612Zm0-4.813a2.111,2.111,0,1,0,2.111,2.111A2.113,2.113,0,0,0,177.195,198.8Z" transform="translate(-133.526 -147.129)" fill="#3a312a"/>
    <path id="Path_307" data-name="Path 307" d="M35.382,118.482H30.29a1.1,1.1,0,0,1-1.1-1.1V112.29a1.1,1.1,0,0,1,1.1-1.1h5.092a1.1,1.1,0,0,1,1.1,1.1v5.092A1.1,1.1,0,0,1,35.382,118.482Z" transform="translate(-16.845 -77.252)" fill="#89c4db"/>
    <path id="Path_308" data-name="Path 308" d="M34.178,117.572H29.086a1.4,1.4,0,0,1-1.395-1.395v-5.092a1.4,1.4,0,0,1,1.395-1.395h5.092a1.4,1.4,0,0,1,1.395,1.395v5.092A1.4,1.4,0,0,1,34.178,117.572Zm-5.092-7.291a.8.8,0,0,0-.8.8v5.092a.8.8,0,0,0,.8.8h5.092a.8.8,0,0,0,.8-.8v-5.092a.8.8,0,0,0-.8-.8Z" transform="translate(-15.64 -76.047)" fill="#3a312a"/>
    <path id="Path_309" data-name="Path 309" d="M82.358,118.482H77.266a1.1,1.1,0,0,1-1.1-1.1V112.29a1.1,1.1,0,0,1,1.1-1.1h5.092a1.1,1.1,0,0,1,1.1,1.1v5.092a1.1,1.1,0,0,1-1.1,1.1Z" transform="translate(-54.568 -77.252)" fill="#89c4db"/>
    <path id="Path_310" data-name="Path 310" d="M81.154,117.572H76.063a1.4,1.4,0,0,1-1.395-1.395v-5.092a1.4,1.4,0,0,1,1.395-1.395h5.092a1.4,1.4,0,0,1,1.395,1.395v5.092A1.4,1.4,0,0,1,81.154,117.572Zm-5.092-7.291a.8.8,0,0,0-.8.8v5.092a.8.8,0,0,0,.8.8h5.092a.8.8,0,0,0,.8-.8v-5.092a.8.8,0,0,0-.8-.8Z" transform="translate(-53.364 -76.047)" fill="#3a312a"/>
    <path id="Path_311" data-name="Path 311" d="M129.334,118.482h-5.092a1.1,1.1,0,0,1-1.1-1.1V112.29a1.1,1.1,0,0,1,1.1-1.1h5.092a1.1,1.1,0,0,1,1.1,1.1v5.092a1.1,1.1,0,0,1-1.1,1.1Z" transform="translate(-92.291 -77.252)" fill="#89c4db"/>
    <path id="Path_312" data-name="Path 312" d="M128.131,117.572h-5.092a1.4,1.4,0,0,1-1.395-1.395v-5.092a1.4,1.4,0,0,1,1.395-1.395h5.092a1.4,1.4,0,0,1,1.395,1.395v5.092A1.4,1.4,0,0,1,128.131,117.572Zm-5.092-7.291a.8.8,0,0,0-.8.8v5.092a.8.8,0,0,0,.8.8h5.092a.8.8,0,0,0,.8-.8v-5.092a.8.8,0,0,0-.8-.8Z" transform="translate(-91.087 -76.047)" fill="#3a312a"/>
    <path id="Path_313" data-name="Path 313" d="M153.841,57.088v3.353h-5.8l1.271-1.676-1.271-1.676Z" transform="translate(-112.282 -33.806)" fill="#fb542b"/>
    <path id="Path_314" data-name="Path 314" d="M152.636,59.53h-5.8a.3.3,0,0,1-.235-.474l1.135-1.5-1.135-1.5a.3.3,0,0,1,.235-.474h5.8a.3.3,0,0,1,.3.3v3.353a.3.3,0,0,1-.3.3Zm-5.208-.591h4.913V56.177h-4.913l.911,1.2a.3.3,0,0,1,0,.357Z" transform="translate(-111.077 -32.6)" fill="#3a312a"/>
    <path id="Path_315" data-name="Path 315" d="M176.293,67.488a.3.3,0,0,1-.3-.3V55.883a.3.3,0,0,1,.591,0V67.192A.3.3,0,0,1,176.293,67.488Z" transform="translate(-134.734 -32.601)" fill="#3a312a"/>
    <path id="Path_316" data-name="Path 316" d="M182.091,133.976v1.83h-7.859a1.053,1.053,0,0,1-1.091-.837v-.993a2.019,2.019,0,0,1,2.019-2.019h1.335v-.877a1.825,1.825,0,0,0,.859.5,2.163,2.163,0,0,0,1.383-.256v.632h1.336A2.019,2.019,0,0,1,182.091,133.976Z" transform="translate(-132.439 -93.223)" fill="#f8e4c8"/>
    <path id="Path_317" data-name="Path 317" d="M180.886,134.894h-7.859a1.344,1.344,0,0,1-1.384-1.095.3.3,0,0,1,0-.038v-.993a2.317,2.317,0,0,1,2.315-2.314h1.04v-.581a.3.3,0,0,1,.5-.214,1.533,1.533,0,0,0,.715.425,1.887,1.887,0,0,0,1.191-.232.3.3,0,0,1,.427.265v.337h1.04a2.317,2.317,0,0,1,2.314,2.314v1.83a.3.3,0,0,1-.3.3Zm-8.655-1.154a.773.773,0,0,0,.8.563h7.564v-1.534a1.725,1.725,0,0,0-1.724-1.724h-1.336a.3.3,0,0,1-.3-.3v-.188a2.157,2.157,0,0,1-1.148.1,1.731,1.731,0,0,1-.5-.2v.283a.3.3,0,0,1-.3.3h-1.335a1.725,1.725,0,0,0-1.724,1.724Z" transform="translate(-131.235 -92.016)" fill="#3a312a"/>
    <path id="Path_318" data-name="Path 318" d="M185.48,133.317l.719-.542,1.388,1.842-.72.542Z" transform="translate(-142.349 -94.584)" fill="#87796f"/>
    <path id="Path_319" data-name="Path 319" d="M185.569,134.281a.3.3,0,0,1-.236-.118l-1.388-1.84a.3.3,0,0,1,.058-.414l.719-.542a.3.3,0,0,1,.414.058l1.387,1.84a.3.3,0,0,1-.058.414l-.719.542A.293.293,0,0,1,185.569,134.281Zm-.974-2.078,1.032,1.368.247-.186-1.032-1.368Z" transform="translate(-141.068 -93.406)" fill="#3a312a"/>
    <path id="Path_320" data-name="Path 320" d="M196.767,135.084l-.719-.542,1.388-1.842.72.542Z" transform="translate(-150.835 -94.524)" fill="#87796f"/>
    <path id="Path_321" data-name="Path 321" d="M195.565,134.281a.293.293,0,0,1-.177-.059l-.719-.542a.295.295,0,0,1-.058-.414l1.387-1.84a.3.3,0,0,1,.414-.058l.719.542a.295.295,0,0,1,.058.414l-1.387,1.84A.3.3,0,0,1,195.565,134.281Zm-.305-.9.247.186,1.032-1.368-.247-.186Z" transform="translate(-149.632 -93.406)" fill="#3a312a"/>
    <path id="Path_322" data-name="Path 322" d="M182.091,117.033v1.83h-7.859a1.053,1.053,0,0,1-1.091-.837l0-7.2a.842.842,0,1,1,1.684,0l0,4.219a2.076,2.076,0,0,1,.335-.03h.4l-.01.006,1.389,1.84.717-.54.715.54,1.389-1.84-.008-.006h.319A2.019,2.019,0,0,1,182.091,117.033Z" transform="translate(-132.439 -76.281)" fill="#f8e4c8"/>
    <path id="Path_323" data-name="Path 323" d="M180.886,117.954h-7.859a1.344,1.344,0,0,1-1.384-1.095.275.275,0,0,1,0-.038l0-7.2a1.138,1.138,0,1,1,2.275,0l0,3.894h.441a.3.3,0,0,1,.276.189l1.161,1.538.481-.362a.3.3,0,0,1,.356,0l.479.362,1.178-1.56a.291.291,0,0,1,.261-.167h.319a2.317,2.317,0,0,1,2.314,2.314v1.83A.3.3,0,0,1,180.886,117.954Zm-8.655-1.154a.773.773,0,0,0,.8.563h7.564v-1.534a1.725,1.725,0,0,0-1.724-1.724h-.16l-1.3,1.728a.3.3,0,0,1-.414.058l-.537-.406-.539.406a.3.3,0,0,1-.414-.058l-1.3-1.728h-.24a1.775,1.775,0,0,0-.287.026.3.3,0,0,1-.343-.292l0-4.219a.547.547,0,1,0-1.093,0Z" transform="translate(-131.235 -75.077)" fill="#3a312a"/>
    <path id="Path_324" data-name="Path 324" d="M182.089,122.958v1.83h-7.859a1.053,1.053,0,0,1-1.091-.837l0-6.59h1.684l0,3.608a2.075,2.075,0,0,1,.335-.03h.4l-.01.006,1.389,1.84.717-.54.715.54,1.389-1.84-.008-.006h.319A2.019,2.019,0,0,1,182.089,122.958Z" transform="translate(-132.438 -82.206)" fill="#d3d650"/>
    <path id="Path_325" data-name="Path 325" d="M180.884,123.879h-7.859a1.344,1.344,0,0,1-1.384-1.095.278.278,0,0,1,0-.038l0-6.59a.3.3,0,0,1,.3-.3h1.684a.3.3,0,0,1,.3.3l0,3.283h.441a.3.3,0,0,1,.276.189l1.161,1.539.481-.362a.3.3,0,0,1,.356,0l.479.362,1.178-1.56a.291.291,0,0,1,.261-.167h.319a2.317,2.317,0,0,1,2.314,2.314v1.83A.3.3,0,0,1,180.884,123.879Zm-8.655-1.154a.773.773,0,0,0,.8.563h7.564v-1.534a1.725,1.725,0,0,0-1.724-1.724h-.16l-1.3,1.728a.3.3,0,0,1-.414.058l-.537-.406-.539.406a.3.3,0,0,1-.413-.058l-1.3-1.728h-.24a1.772,1.772,0,0,0-.287.026.3.3,0,0,1-.343-.292l0-3.313h-1.093Z" transform="translate(-131.233 -81.001)" fill="#3a312a"/>
    <path id="Path_326" data-name="Path 326" d="M179.642,104.314a.795.795,0,1,1-.612-.943A.795.795,0,0,1,179.642,104.314Z" transform="translate(-136.398 -70.958)" fill="#f8e4c8" fill-rule="evenodd"/>
    <path id="Path_327" data-name="Path 327" d="M177.661,104.035a1.108,1.108,0,0,1-.229-.024,1.085,1.085,0,1,1,.229.024Zm0-1.589a.5.5,0,1,0,.42.228A.5.5,0,0,0,177.657,102.445Zm.778.665h0Z" transform="translate(-135.192 -69.754)" fill="#3a312a"/>
    <path id="Path_328" data-name="Path 328" d="M214.086,111.641a.795.795,0,1,1-.612-.943A.795.795,0,0,1,214.086,111.641Z" transform="translate(-164.057 -76.842)" fill="#f8e4c8" fill-rule="evenodd"/>
    <path id="Path_329" data-name="Path 329" d="M212.1,111.364a1.107,1.107,0,0,1-.229-.024,1.085,1.085,0,1,1,.229.024Zm0-1.589a.5.5,0,0,0-.1.987.5.5,0,0,0,.592-.384.5.5,0,0,0-.488-.6Zm.778.664h0Z" transform="translate(-162.851 -75.64)" fill="#3a312a"/>
    <path id="Path_330" data-name="Path 330" d="M188.825,95.513c-.4,1.9-2.859,4.432-4.472,4.089-1.54-.328-2.825-3.653-2.42-5.555a3.523,3.523,0,0,1,6.892,1.466Z" transform="translate(-139.44 -61.245)" fill="#f8e4c8"/>
    <g id="Group_98" data-name="Group 98" transform="translate(42.124 29.717)">
      <path id="Path_331" data-name="Path 331" d="M183.448,98.723a1.706,1.706,0,0,1-.355-.036c-1.732-.369-3.077-3.888-2.648-5.906a3.819,3.819,0,0,1,7.47,1.589c-.411,1.93-2.724,4.353-4.467,4.353Zm.731-8.374a3.232,3.232,0,0,0-3.156,2.555c-.4,1.864.895,4.928,2.193,5.2,1.218.259,3.683-1.8,4.121-3.861a3.23,3.23,0,0,0-3.159-3.9Zm3.447,3.959h0Z" transform="translate(-180.364 -89.758)" fill="#3a312a"/>
      <path id="Path_332" data-name="Path 332" d="M192.534,106.3a.344.344,0,1,1-.265-.408A.344.344,0,0,1,192.534,106.3Zm2.433.518a.344.344,0,1,1-.265-.408A.344.344,0,0,1,194.968,106.814Z" transform="translate(-189.591 -102.705)" fill="#3a312a"/>
    </g>
    <path id="Path_333" data-name="Path 333" d="M187.295,110.262a.534.534,0,0,1-.671.31c-.32-.068-.538-.317-.487-.556a.534.534,0,0,1,.671-.31C187.128,109.773,187.346,110.022,187.295,110.262Zm3.778.8a.534.534,0,0,1-.672.31c-.32-.068-.538-.317-.487-.556a.534.534,0,0,1,.672-.31C190.905,110.577,191.124,110.826,191.073,111.065Z" transform="translate(-142.869 -76.045)" fill="#f59689"/>
    <path id="Path_334" data-name="Path 334" d="M186.852,87.493a3.568,3.568,0,0,0-4.292,2.65,1.482,1.482,0,0,0-.01.555c.013.094.583-.076.633-.1a1.9,1.9,0,0,0,.654-.477,2.058,2.058,0,0,0,.2-.26c.183-.285.686-1.078,1-.942a7.661,7.661,0,0,0,2.9.617c.339,0,.475.931.527,1.266a2.041,2.041,0,0,0,.076.319,1.591,1.591,0,0,0,.869,1.028c.006-.021.035-.023.057-.026.159-.022.206-.345.231-.464A3.568,3.568,0,0,0,186.852,87.493Z" transform="translate(-139.979 -58.154)" fill="#87796f"/>
    <path id="Path_335" data-name="Path 335" d="M188.2,91.242a.3.3,0,0,1-.1-.018,1.873,1.873,0,0,1-1.048-1.213,2.356,2.356,0,0,1-.087-.365l0-.021a2.346,2.346,0,0,0-.272-.995A7.973,7.973,0,0,1,183.744,88c-.073.034-.257.182-.653.8l-.012.018a2.358,2.358,0,0,1-.228.3,2.2,2.2,0,0,1-.757.552c-.006,0-.628.244-.881.1a.318.318,0,0,1-.161-.235,1.771,1.771,0,0,1,.014-.657,3.946,3.946,0,0,1,7.712,1.64l-.007.036c-.037.189-.113.572-.424.649A.3.3,0,0,1,188.2,91.242ZM188.486,91.023Zm-4.741-3.62a.5.5,0,0,1,.2.043,7.362,7.362,0,0,0,2.784.592c.539,0,.7.773.814,1.5l0,.02a1.759,1.759,0,0,0,.065.273,1.414,1.414,0,0,0,.542.768c.017-.057.03-.126.036-.156l.009-.044A3.355,3.355,0,0,0,181.644,89a1.061,1.061,0,0,0-.024.191q.126-.029.249-.07a1.6,1.6,0,0,0,.543-.4,1.742,1.742,0,0,0,.17-.222l.012-.018C182.935,87.951,183.327,87.4,183.745,87.4Zm.618,6.2a1.468,1.468,0,0,1-.307-.033,1.293,1.293,0,0,1-1.052-1.015.3.3,0,1,1,.575-.137.7.7,0,0,0,.6.575.735.735,0,0,0,.768-.26.3.3,0,1,1,.5.318A1.3,1.3,0,0,1,184.364,93.6Z" transform="translate(-138.774 -56.951)" fill="#3a312a"/>
    <path id="Path_336" data-name="Path 336" d="M195.351,82.1c-.208.978-1.588,1.512-3.082,1.195s-2.537-1.368-2.329-2.346,3.053-1.55,3.153-1.529C193.127,79.431,195.559,81.126,195.351,82.1Z" transform="translate(-145.909 -51.742)" fill="#87796f"/>
    <path id="Path_337" data-name="Path 337" d="M185.285,82.491a4.426,4.426,0,0,1-.919-.1,3.9,3.9,0,0,1-1.951-1.006,1.851,1.851,0,0,1-.605-1.69c.112-.526.7-.969,1.808-1.356a6.659,6.659,0,0,1,1.7-.4c.133.028,2.746,1.8,2.485,3.03a1.851,1.851,0,0,1-1.241,1.3A3.536,3.536,0,0,1,185.285,82.491Zm-.107-3.959c-.575.08-2.658.665-2.79,1.287a1.286,1.286,0,0,0,.447,1.151,3.581,3.581,0,0,0,3.509.747,1.286,1.286,0,0,0,.876-.869C187.35,80.238,185.725,78.9,185.178,78.532Zm-4.733,14.893a.3.3,0,0,1-.3-.3V91.684a.3.3,0,0,1,.591,0v1.446A.3.3,0,0,1,180.444,93.425Zm5.68,0a.3.3,0,0,1-.3-.3V91.684a.3.3,0,1,1,.591,0v1.446A.3.3,0,0,1,186.124,93.425Z" transform="translate(-138.068 -50.547)" fill="#3a312a"/>
    <path id="Path_338" data-name="Path 338" d="M179,93.045v1.346a1.094,1.094,0,0,1,.409-.171,1.724,1.724,0,0,1,.03-.192,3.622,3.622,0,0,1,.573-1.317A4.006,4.006,0,0,0,179,92.324Zm11.15,11.934h-2.955a3.994,3.994,0,0,1,.461,1.861v.764h2.955v-.764A3.994,3.994,0,0,0,190.146,104.979Z" transform="translate(-137.142 -62.101)" fill="#d24e5c"/>
    <path id="Path_339" data-name="Path 339" d="M222.94,172.9h2.955v5.385H222.94Z" transform="translate(-172.43 -126.806)" fill="#b8c136"/>
    <path id="Path_340" data-name="Path 340" d="M210.43,131.472l-.054-.069-4.3-5.352a6.876,6.876,0,0,1-1.359,1.2l.49.369h.221a2.317,2.317,0,0,1,2.314,2.314v1.534Z" transform="translate(-157.799 -89.186)" fill="#6ca6be"/>
  </g>
</svg>
